<svg xmlns="http://www.w3.org/2000/svg" width="129" height="60" viewBox="0 0 129 60"><style type="text/css">.st0{fill-rule:evenodd;clip-rule:evenodd;fill:#C9D1D8;} .st1{fill-rule:evenodd;clip-rule:evenodd;fill:#374252;} .st2{fill:#C9D1D8;} .st3{fill:#FAFCFF;} .st4{fill:#374252;} .st5{fill:#4C6575;} .st6{fill-rule:evenodd;clip-rule:evenodd;fill:#4C6575;}</style><g id="header"><g id="nav_1_"><path id="header_x5F_nav_x5F_li-github_2_" class="st0" d="M14.9 0c-8.2 0-14.9 6.7-14.9 14.9 0 6.5 4.3 12.1 10.2 14.1.7.1 1-.3 1-.7v-2.5c-4.1.9-5-2-5-2-.7-1.7-1.7-2.2-1.7-2.2-1.3-.9.1-.9.1-.9 1.5.1 2.3 1.5 2.3 1.5 1.3 2.3 3.5 1.6 4.3 1.2.1-1 .5-1.6.9-2-3.3-.4-6.8-1.7-6.8-7.3 0-1.6.6-3 1.5-4 0-.4-.6-1.9.3-3.9 0 0 1.2-.4 4.1 1.5 1.2-.3 2.5-.5 3.7-.5 1.3 0 2.5.2 3.7.5 2.8-1.9 4.1-1.5 4.1-1.5.8 2 .3 3.6.1 3.9 1 1 1.5 2.4 1.5 4 0 5.7-3.5 7-6.8 7.3.5.5 1 1.4 1 2.8v4.1c0 .4.3.9 1 .7 5.9-2 10.2-7.5 10.2-14.1 0-8.2-6.6-14.9-14.8-14.9z"/><path id="header_x5F_nav_x5F_li-github_9_" class="st1" d="M46.9 0c-8.2 0-14.9 6.7-14.9 14.9 0 6.5 4.3 12.1 10.2 14.1.7.1 1-.3 1-.7v-2.5c-4.1.9-5-2-5-2-.7-1.7-1.7-2.2-1.7-2.2-1.3-.9.1-.9.1-.9 1.5.1 2.3 1.5 2.3 1.5 1.3 2.3 3.5 1.6 4.3 1.2.1-1 .5-1.6.9-2-3.3-.4-6.8-1.7-6.8-7.3 0-1.6.6-3 1.5-4-.2-.4-.7-1.9.1-3.9 0 0 1.2-.4 4.1 1.5 1.2-.3 2.5-.5 3.7-.5 1.3 0 2.5.2 3.7.5 2.8-1.9 4.1-1.5 4.1-1.5.8 2 .3 3.6.1 3.9 1 1 1.5 2.4 1.5 4 0 5.7-3.5 7-6.8 7.3.5.5 1 1.4 1 2.8v4.1c0 .4.3.9 1 .7 5.9-2 10.2-7.5 10.2-14.1.2-8.2-6.4-14.9-14.6-14.9z"/><path id="header_x5F_nav_x5F_li-twitter_2_" class="st2" d="M96 3.1c-1.2.5-2.4.9-3.8 1 1.4-.8 2.4-2.1 2.9-3.6-1.3.8-2.7 1.3-4.2 1.6-1.2-1.3-2.9-2.1-4.7-2.1-3.6 0-6.6 2.9-6.6 6.6 0 .5.1 1 .2 1.5-5.5-.3-10.3-2.9-13.5-6.9-.6 1-.9 2.1-.9 3.3 0 2.3 1.2 4.3 2.9 5.5-1.1 0-2.1-.3-3-.8v.1c0 3.2 2.3 5.8 5.3 6.4-.6.1-1.1.2-1.7.2-.4 0-.8 0-1.2-.1.8 2.6 3.3 4.5 6.1 4.6-2.2 1.8-5.1 2.8-8.2 2.8-.5 0-1.1 0-1.6-.1 2.9 1.9 6.4 2.9 10.1 2.9 12.1 0 18.7-10 18.7-18.7v-.8c1.2-.9 2.3-2.1 3.2-3.4z"/><path id="header_x5F_nav_x5F_li-twitter_1_" class="st3" d="M96 37.1c-1.2.5-2.4.9-3.8 1 1.4-.8 2.4-2.1 2.9-3.6-1.3.8-2.7 1.3-4.2 1.6-1.2-1.3-2.9-2.1-4.7-2.1-3.6 0-6.6 2.9-6.6 6.6 0 .5.1 1 .2 1.5-5.5-.3-10.3-2.9-13.5-6.9-.6 1-.9 2.1-.9 3.3 0 2.3 1.2 4.3 2.9 5.5-1.1 0-2.1-.3-3-.8v.1c0 3.2 2.3 5.8 5.3 6.4-.6.1-1.1.2-1.7.2-.4 0-.8 0-1.2-.1.8 2.6 3.3 4.5 6.1 4.6-2.2 1.8-5.1 2.8-8.2 2.8-.5 0-1.1 0-1.6-.1 2.9 1.9 6.4 2.9 10.1 2.9 12.1 0 18.7-10 18.7-18.7v-.8c1.2-.9 2.3-2.1 3.2-3.4z"/><path id="header_x5F_nav_x5F_li-twitter_9_" class="st4" d="M129 3.1c-1.2.5-2.4.9-3.8 1 1.4-.8 2.4-2.1 2.9-3.6-1.3.8-2.7 1.3-4.2 1.6-1.2-1.3-2.9-2.1-4.7-2.1-3.6 0-6.6 2.9-6.6 6.6 0 .5.1 1 .2 1.5-5.5-.3-10.3-2.9-13.5-6.9-.6 1-.9 2.1-.9 3.3 0 2.3 1.2 4.3 2.9 5.5-1.1 0-2.1-.3-3-.8v.1c0 3.2 2.3 5.8 5.3 6.4-.6.1-1.1.2-1.7.2-.4 0-.8 0-1.2-.1.8 2.6 3.3 4.5 6.1 4.6-2.2 1.8-5.1 2.8-8.2 2.8-.5 0-1.1 0-1.6-.1 2.9 1.9 6.4 2.9 10.1 2.9 12.1 0 18.7-10 18.7-18.7v-.8c1.2-.9 2.3-2.1 3.2-3.4z"/><path id="header_x5F_nav_x5F_li-twitter_7_" class="st5" d="M129 37.1c-1.2.5-2.4.9-3.8 1 1.4-.8 2.4-2.1 2.9-3.6-1.3.8-2.7 1.3-4.2 1.6-1.2-1.3-2.9-2.1-4.8-2.1-3.6 0-6.6 2.9-6.6 6.6 0 .5.1 1 .2 1.5-5.5-.3-10.3-2.9-13.5-6.9-.6 1-.9 2.1-.9 3.3 0 2.3 1.2 4.3 2.9 5.5-1.1 0-2.1-.3-3-.8v.1c0 3.2 2.3 5.8 5.3 6.4-.6.1-1.1.2-1.7.2-.4 0-.8 0-1.2-.1.8 2.6 3.3 4.5 6.1 4.6-2.2 1.8-5.1 2.8-8.2 2.8-.5 0-1.1 0-1.6-.1 2.9 1.9 6.4 2.9 10.1 2.9 12.1 0 18.7-10 18.7-18.7v-.8c1.3-.9 2.4-2.1 3.3-3.4z"/></g><g id="nav"><path id="header_x5F_nav_x5F_li-github_27_" class="st3" d="M14.9 31c-8.2 0-14.9 6.7-14.9 14.9 0 6.5 4.3 12.1 10.2 14.1.7.1 1-.3 1-.7v-2.5c-4.1.9-5-2-5-2-.7-1.7-1.7-2.2-1.7-2.2-1.3-.9.1-.9.1-.9 1.5.1 2.3 1.5 2.3 1.5 1.3 2.3 3.5 1.6 4.3 1.2.1-1 .5-1.6.9-2-3.3-.4-6.8-1.7-6.8-7.3 0-1.6.6-3 1.5-4-.2-.4-.7-1.9.1-3.9 0 0 1.2-.4 4.1 1.5 1.2-.3 2.5-.5 3.7-.5 1.3 0 2.5.2 3.7.5 2.8-1.9 4.1-1.5 4.1-1.5.8 2 .3 3.6.1 3.9 1 1 1.5 2.4 1.5 4 0 5.7-3.5 7-6.8 7.3.5.5 1 1.4 1 2.8v4.1c0 .4.3.9 1 .7 5.9-2 10.2-7.5 10.2-14.1.2-8.2-6.4-14.9-14.6-14.9z"/><path class="st6" d="M46.9 31c-8.2 0-14.9 6.7-14.9 14.9 0 6.5 4.3 12.1 10.2 14.1.7.1 1-.3 1-.7v-2.5c-4.1.9-5-2-5-2-.7-1.7-1.7-2.2-1.7-2.2-1.3-.9.1-.9.1-.9 1.5.1 2.3 1.5 2.3 1.5 1.3 2.3 3.5 1.6 4.3 1.2.1-1 .5-1.6.9-2-3.3-.4-6.8-1.7-6.8-7.3 0-1.6.6-3 1.5-4-.2-.4-.7-1.9.1-3.9 0 0 1.2-.4 4.1 1.5 1.2-.3 2.5-.5 3.7-.5 1.3 0 2.5.2 3.7.5 2.8-1.9 4.1-1.5 4.1-1.5.8 2 .3 3.6.1 3.9 1 1 1.5 2.4 1.5 4 0 5.7-3.5 7-6.8 7.3.5.5 1 1.4 1 2.8v4.1c0 .4.3.9 1 .7 5.9-2 10.2-7.5 10.2-14.1.2-8.2-6.4-14.9-14.6-14.9z" id="header_x5F_nav_x5F_li-github_26_"/></g></g></svg>